<mxfile host="app.diagrams.net" modified="2022-01-28T14:28:43.151Z" agent="5.0 (Macintosh; Intel Mac OS X 10_15_7) AppleWebKit/537.36 (KHTML, like Gecko) Chrome/97.0.4692.99 Safari/537.36" etag="PZAWposf7leE-cFYWOGg" version="16.4.6" type="github">
  <diagram id="R2lEEEUBdFMjLlhIrx00" name="Page-1">
    <mxGraphModel dx="1142" dy="609" grid="1" gridSize="10" guides="1" tooltips="1" connect="1" arrows="1" fold="1" page="1" pageScale="1" pageWidth="850" pageHeight="1100" math="0" shadow="0" extFonts="Permanent Marker^https://fonts.googleapis.com/css?family=Permanent+Marker">
      <root>
        <mxCell id="0" />
        <mxCell id="1" parent="0" />
        <object label="Bus Service" id="_oqTozsQTF3NkIddqZB--1">
          <mxCell style="swimlane;fontStyle=0;childLayout=stackLayout;horizontal=1;startSize=26;horizontalStack=0;resizeParent=1;resizeParentMax=0;resizeLast=0;collapsible=1;marginBottom=0;align=center;fontSize=14;" vertex="1" parent="1">
            <mxGeometry x="235" y="50" width="160" height="56" as="geometry">
              <mxRectangle x="260" y="30" width="110" height="26" as="alternateBounds" />
            </mxGeometry>
          </mxCell>
        </object>
        <mxCell id="_oqTozsQTF3NkIddqZB--2" value="Bus_id" style="text;strokeColor=none;fillColor=none;spacingLeft=4;spacingRight=4;overflow=hidden;rotatable=0;points=[[0,0.5],[1,0.5]];portConstraint=eastwest;fontSize=12;align=center;" vertex="1" parent="_oqTozsQTF3NkIddqZB--1">
          <mxGeometry y="26" width="160" height="30" as="geometry" />
        </mxCell>
        <mxCell id="_oqTozsQTF3NkIddqZB--5" value="Function 1: Bus service information" style="text;whiteSpace=wrap;html=1;" vertex="1" parent="1">
          <mxGeometry x="10" width="210" height="30" as="geometry" />
        </mxCell>
        <mxCell id="_oqTozsQTF3NkIddqZB--6" value="Company" style="swimlane;fontStyle=0;childLayout=stackLayout;horizontal=1;startSize=20;horizontalStack=0;resizeParent=1;resizeParentMax=0;resizeLast=0;collapsible=1;marginBottom=0;align=center;fontSize=14;" vertex="1" parent="1">
          <mxGeometry x="20" y="170" width="110" height="50" as="geometry">
            <mxRectangle x="30" y="40" width="90" height="26" as="alternateBounds" />
          </mxGeometry>
        </mxCell>
        <mxCell id="_oqTozsQTF3NkIddqZB--7" value="name " style="text;strokeColor=none;fillColor=none;spacingLeft=4;spacingRight=4;overflow=hidden;rotatable=0;points=[[0,0.5],[1,0.5]];portConstraint=eastwest;fontSize=12;align=center;fontStyle=4" vertex="1" parent="_oqTozsQTF3NkIddqZB--6">
          <mxGeometry y="20" width="110" height="30" as="geometry" />
        </mxCell>
        <mxCell id="_oqTozsQTF3NkIddqZB--15" value="Normal Route" style="swimlane;fontStyle=0;childLayout=stackLayout;horizontal=1;startSize=26;horizontalStack=0;resizeParent=1;resizeParentMax=0;resizeLast=0;collapsible=1;marginBottom=0;align=center;fontSize=14;" vertex="1" collapsed="1" parent="1">
          <mxGeometry x="150" y="270.33" width="110" height="26" as="geometry">
            <mxRectangle x="190" y="140" width="150" height="86" as="alternateBounds" />
          </mxGeometry>
        </mxCell>
        <mxCell id="_oqTozsQTF3NkIddqZB--16" value="     bus_frequency_weekend" style="text;strokeColor=none;fillColor=none;spacingLeft=4;spacingRight=4;overflow=hidden;rotatable=0;points=[[0,0.5],[1,0.5]];portConstraint=eastwest;fontSize=12;align=center;" vertex="1" parent="_oqTozsQTF3NkIddqZB--15">
          <mxGeometry y="26" width="150" height="30" as="geometry" />
        </mxCell>
        <mxCell id="_oqTozsQTF3NkIddqZB--17" value=" bus_frequency_weekdays" style="text;strokeColor=none;fillColor=none;spacingLeft=4;spacingRight=4;overflow=hidden;rotatable=0;points=[[0,0.5],[1,0.5]];portConstraint=eastwest;fontSize=12;align=center;" vertex="1" parent="_oqTozsQTF3NkIddqZB--15">
          <mxGeometry y="56" width="150" height="30" as="geometry" />
        </mxCell>
        <mxCell id="_oqTozsQTF3NkIddqZB--20" value="Express Route" style="swimlane;fontStyle=0;childLayout=stackLayout;horizontal=1;startSize=26;horizontalStack=0;resizeParent=1;resizeParentMax=0;resizeLast=0;collapsible=1;marginBottom=0;align=center;fontSize=14;" vertex="1" collapsed="1" parent="1">
          <mxGeometry x="380" y="270.33" width="110" height="26" as="geometry">
            <mxRectangle x="360" y="140" width="150" height="86" as="alternateBounds" />
          </mxGeometry>
        </mxCell>
        <mxCell id="_oqTozsQTF3NkIddqZB--21" value="     bus_frequency_weekend" style="text;strokeColor=none;fillColor=none;spacingLeft=4;spacingRight=4;overflow=hidden;rotatable=0;points=[[0,0.5],[1,0.5]];portConstraint=eastwest;fontSize=12;align=center;" vertex="1" parent="_oqTozsQTF3NkIddqZB--20">
          <mxGeometry y="26" width="150" height="30" as="geometry" />
        </mxCell>
        <mxCell id="_oqTozsQTF3NkIddqZB--22" value=" bus_frequency_weekdays" style="text;strokeColor=none;fillColor=none;spacingLeft=4;spacingRight=4;overflow=hidden;rotatable=0;points=[[0,0.5],[1,0.5]];portConstraint=eastwest;fontSize=12;align=center;" vertex="1" parent="_oqTozsQTF3NkIddqZB--20">
          <mxGeometry y="56" width="150" height="30" as="geometry" />
        </mxCell>
        <mxCell id="_oqTozsQTF3NkIddqZB--23" value="Bus Stop" style="swimlane;fontStyle=0;childLayout=stackLayout;horizontal=1;startSize=26;horizontalStack=0;resizeParent=1;resizeParentMax=0;resizeLast=0;collapsible=1;marginBottom=0;align=center;fontSize=14;labelBorderColor=none;html=0;" vertex="1" parent="1">
          <mxGeometry x="630" y="290" width="150" height="116" as="geometry">
            <mxRectangle x="620" y="25" width="90" height="26" as="alternateBounds" />
          </mxGeometry>
        </mxCell>
        <mxCell id="_oqTozsQTF3NkIddqZB--24" value="Stop_ID" style="text;strokeColor=none;fillColor=none;spacingLeft=4;spacingRight=4;overflow=hidden;rotatable=0;points=[[0,0.5],[1,0.5]];portConstraint=eastwest;fontSize=12;labelBorderColor=none;html=0;align=center;" vertex="1" parent="_oqTozsQTF3NkIddqZB--23">
          <mxGeometry y="26" width="150" height="30" as="geometry" />
        </mxCell>
        <mxCell id="_oqTozsQTF3NkIddqZB--25" value="location(longitude,latitude)" style="text;strokeColor=none;fillColor=none;spacingLeft=4;spacingRight=4;overflow=hidden;rotatable=0;points=[[0,0.5],[1,0.5]];portConstraint=eastwest;fontSize=12;labelBorderColor=none;html=0;align=center;" vertex="1" parent="_oqTozsQTF3NkIddqZB--23">
          <mxGeometry y="56" width="150" height="30" as="geometry" />
        </mxCell>
        <mxCell id="_oqTozsQTF3NkIddqZB--26" value="Despriction" style="text;strokeColor=none;fillColor=none;spacingLeft=4;spacingRight=4;overflow=hidden;rotatable=0;points=[[0,0.5],[1,0.5]];portConstraint=eastwest;fontSize=12;labelBorderColor=none;html=0;align=center;" vertex="1" parent="_oqTozsQTF3NkIddqZB--23">
          <mxGeometry y="86" width="150" height="30" as="geometry" />
        </mxCell>
        <mxCell id="_oqTozsQTF3NkIddqZB--27" value="Stop Record" style="swimlane;childLayout=stackLayout;horizontal=1;startSize=30;horizontalStack=0;rounded=1;fontSize=14;fontStyle=0;strokeWidth=2;resizeParent=0;resizeLast=1;shadow=0;dashed=0;align=center;labelBorderColor=none;html=0;" vertex="1" parent="1">
          <mxGeometry x="490" y="100" width="150" height="70" as="geometry">
            <mxRectangle x="440" y="26" width="90" height="24" as="alternateBounds" />
          </mxGeometry>
        </mxCell>
        <mxCell id="_oqTozsQTF3NkIddqZB--28" value="order_of_bus &#xa;number_of_bus_stopped" style="align=center;strokeColor=none;fillColor=none;spacingLeft=4;fontSize=12;verticalAlign=top;resizable=0;rotatable=0;part=1;labelBorderColor=none;html=0;" vertex="1" parent="_oqTozsQTF3NkIddqZB--27">
          <mxGeometry y="30" width="150" height="40" as="geometry" />
        </mxCell>
        <mxCell id="_oqTozsQTF3NkIddqZB--31" value="" style="edgeStyle=entityRelationEdgeStyle;fontSize=12;html=1;endArrow=ERoneToMany;startArrow=ERmandOne;rounded=0;exitX=1;exitY=0.25;exitDx=0;exitDy=0;entryX=0;entryY=0.5;entryDx=0;entryDy=0;" edge="1" parent="1" source="_oqTozsQTF3NkIddqZB--1" target="_oqTozsQTF3NkIddqZB--27">
          <mxGeometry width="100" height="100" relative="1" as="geometry">
            <mxPoint x="320" y="180" as="sourcePoint" />
            <mxPoint x="420" y="80" as="targetPoint" />
          </mxGeometry>
        </mxCell>
        <mxCell id="_oqTozsQTF3NkIddqZB--34" value="has" style="edgeLabel;html=1;align=center;verticalAlign=middle;resizable=0;points=[];" vertex="1" connectable="0" parent="_oqTozsQTF3NkIddqZB--31">
          <mxGeometry x="-0.1918" relative="1" as="geometry">
            <mxPoint x="5" y="311" as="offset" />
          </mxGeometry>
        </mxCell>
        <mxCell id="_oqTozsQTF3NkIddqZB--36" value="" style="edgeStyle=entityRelationEdgeStyle;fontSize=12;html=1;endArrow=ERoneToMany;startArrow=ERmandOne;rounded=0;exitX=0;exitY=0.5;exitDx=0;exitDy=0;entryX=1;entryY=0.5;entryDx=0;entryDy=0;" edge="1" parent="1" source="_oqTozsQTF3NkIddqZB--23" target="_oqTozsQTF3NkIddqZB--27">
          <mxGeometry width="100" height="100" relative="1" as="geometry">
            <mxPoint x="550" y="100" as="sourcePoint" />
            <mxPoint x="620" y="101.5" as="targetPoint" />
          </mxGeometry>
        </mxCell>
        <mxCell id="_oqTozsQTF3NkIddqZB--37" value="has" style="edgeLabel;html=1;align=center;verticalAlign=middle;resizable=0;points=[];" vertex="1" connectable="0" parent="_oqTozsQTF3NkIddqZB--36">
          <mxGeometry x="-0.1918" relative="1" as="geometry">
            <mxPoint y="1" as="offset" />
          </mxGeometry>
        </mxCell>
        <mxCell id="_oqTozsQTF3NkIddqZB--39" value="" style="shape=link;html=1;rounded=0;exitX=0.5;exitY=1;exitDx=0;exitDy=0;entryX=0.5;entryY=0;entryDx=0;entryDy=0;" edge="1" parent="1" source="_oqTozsQTF3NkIddqZB--1" target="_oqTozsQTF3NkIddqZB--42">
          <mxGeometry relative="1" as="geometry">
            <mxPoint x="370" y="-100" as="sourcePoint" />
            <mxPoint x="370" y="-50" as="targetPoint" />
          </mxGeometry>
        </mxCell>
        <mxCell id="_oqTozsQTF3NkIddqZB--40" value="" style="resizable=0;html=1;align=right;verticalAlign=bottom;labelBorderColor=none;" connectable="0" vertex="1" parent="_oqTozsQTF3NkIddqZB--39">
          <mxGeometry x="1" relative="1" as="geometry">
            <mxPoint x="-10" as="offset" />
          </mxGeometry>
        </mxCell>
        <mxCell id="_oqTozsQTF3NkIddqZB--42" value="d" style="ellipse;whiteSpace=wrap;html=1;aspect=fixed;labelBorderColor=none;" vertex="1" parent="1">
          <mxGeometry x="335" y="200.32999999999998" width="20" height="20" as="geometry" />
        </mxCell>
        <mxCell id="_oqTozsQTF3NkIddqZB--43" value="" style="endArrow=none;html=1;rounded=0;exitX=0.5;exitY=1;exitDx=0;exitDy=0;entryX=0.5;entryY=0;entryDx=0;entryDy=0;" edge="1" parent="1" source="_oqTozsQTF3NkIddqZB--42" target="_oqTozsQTF3NkIddqZB--20">
          <mxGeometry relative="1" as="geometry">
            <mxPoint x="325" y="230.32999999999998" as="sourcePoint" />
            <mxPoint x="485" y="230.32999999999998" as="targetPoint" />
          </mxGeometry>
        </mxCell>
        <mxCell id="_oqTozsQTF3NkIddqZB--46" value="" style="endArrow=none;html=1;rounded=0;exitX=0.5;exitY=1;exitDx=0;exitDy=0;entryX=0.5;entryY=0;entryDx=0;entryDy=0;" edge="1" parent="1" target="_oqTozsQTF3NkIddqZB--15">
          <mxGeometry relative="1" as="geometry">
            <mxPoint x="345" y="220.32999999999998" as="sourcePoint" />
            <mxPoint x="230" y="270.3299999999999" as="targetPoint" />
            <Array as="points" />
          </mxGeometry>
        </mxCell>
        <mxCell id="_oqTozsQTF3NkIddqZB--51" value="" style="edgeStyle=entityRelationEdgeStyle;fontSize=12;html=1;endArrow=ERoneToMany;startArrow=ERmandOne;rounded=0;entryX=0;entryY=0.5;entryDx=0;entryDy=0;exitX=0.999;exitY=0.346;exitDx=0;exitDy=0;exitPerimeter=0;" edge="1" parent="1" source="_oqTozsQTF3NkIddqZB--7" target="_oqTozsQTF3NkIddqZB--2">
          <mxGeometry width="100" height="100" relative="1" as="geometry">
            <mxPoint x="100" y="180" as="sourcePoint" />
            <mxPoint x="200" y="80" as="targetPoint" />
          </mxGeometry>
        </mxCell>
        <mxCell id="_oqTozsQTF3NkIddqZB--52" value="operate" style="edgeLabel;html=1;align=center;verticalAlign=middle;resizable=0;points=[];" vertex="1" connectable="0" parent="_oqTozsQTF3NkIddqZB--51">
          <mxGeometry x="-0.1281" y="-3" relative="1" as="geometry">
            <mxPoint x="-1" as="offset" />
          </mxGeometry>
        </mxCell>
      </root>
    </mxGraphModel>
  </diagram>
</mxfile>
